<svg width="83" height="15" viewBox="0 0 83 15" fill="none" xmlns="http://www.w3.org/2000/svg">
<path d="M3.24302 13.6391H8.70205V12.2203H3.24302V13.6391ZM3.74549 5.6761H7.79927C7.91642 5.6761 8.01892 5.63212 8.10675 5.54415C8.19458 5.45619 8.2385 5.35356 8.2385 5.23627C8.2385 5.11884 8.19458 5.01554 8.10675 4.92636C8.01892 4.83731 7.91642 4.79279 7.79927 4.79279H3.74549C3.62442 4.79279 3.5201 4.83711 3.43254 4.92575C3.34498 5.01439 3.3012 5.1179 3.3012 5.23627C3.3012 5.3545 3.34498 5.4574 3.43254 5.54496C3.5201 5.63239 3.62442 5.6761 3.74549 5.6761ZM3.74549 3.61536H7.79927C7.91642 3.61536 8.01892 3.57158 8.10675 3.48402C8.19458 3.39646 8.2385 3.29302 8.2385 3.17371C8.2385 3.05425 8.19458 2.95075 8.10675 2.86319C8.01892 2.77562 7.91642 2.73184 7.79927 2.73184H3.74549C3.62442 2.73184 3.5201 2.77583 3.43254 2.86379C3.34498 2.95162 3.3012 3.05412 3.3012 3.17127C3.3012 3.29221 3.34498 3.39646 3.43254 3.48402C3.5201 3.57158 3.62442 3.61536 3.74549 3.61536ZM11.5348 6.68955V5.38139H13.46V3.02676H11.5348V1.7184H13.3872C13.7411 1.7184 14.0484 1.83751 14.3092 2.07574C14.5699 2.31383 14.7164 2.60496 14.7489 2.94913V3.55719H16.5487C16.7331 3.55719 16.8886 3.62063 17.0153 3.74752C17.142 3.8744 17.2053 4.03013 17.2053 4.21472C17.2053 4.38916 17.142 4.54125 17.0153 4.67097C16.8886 4.80056 16.7331 4.86535 16.5487 4.86535H14.7391V5.47341C14.7068 5.81434 14.561 6.10229 14.3017 6.33728C14.0424 6.57212 13.7376 6.68955 13.3872 6.68955H11.5348ZM8.29667 10.9122H6.98851V7.09493H10.2315V1.31302H3.34011C2.77258 1.31302 2.29289 1.50895 1.90102 1.90082C1.50915 2.29268 1.31322 2.77238 1.31322 3.33991V5.06804C1.31322 5.63557 1.50915 6.11526 1.90102 6.50713C2.29289 6.89899 2.77258 7.09493 3.34011 7.09493H4.96162V10.9122H3.6484V8.39842H3.24302C2.3416 8.37572 1.5757 8.0404 0.945342 7.39247C0.315114 6.74441 0 5.9696 0 5.06804V3.33991C0 2.42321 0.327072 1.63739 0.981217 0.982433C1.63523 0.327477 2.42153 0 3.34011 0H10.149C10.5335 0 10.8605 0.134856 11.1303 0.404568C11.4 0.674279 11.5348 1.00135 11.5348 1.38578V7.02236C11.5348 7.40666 11.4 7.73374 11.1303 8.00358C10.8605 8.27329 10.5335 8.40815 10.149 8.40815H8.29667V10.9122ZM2.96818 14.9524C2.67874 14.9524 2.43416 14.851 2.23444 14.6481C2.03473 14.4453 1.93487 14.2007 1.93487 13.9142V11.9455C1.93487 11.6585 2.03473 11.4145 2.23444 11.2136C2.43416 11.0126 2.67874 10.9122 2.96818 10.9122H8.97689C9.26539 10.9122 9.51051 11.0126 9.71225 11.2136C9.91413 11.4145 10.0151 11.6585 10.0151 11.9455V13.9142C10.0151 14.2007 9.91413 14.4453 9.71225 14.6481C9.51051 14.851 9.26539 14.9524 8.97689 14.9524H2.96818Z" fill="black"/>
<path d="M80.0766 3.18477V10.5521C80.0766 10.9177 80.1704 11.1845 80.3582 11.3525C80.5559 11.5205 80.8177 11.6045 81.1439 11.6045C81.4107 11.6045 81.6429 11.565 81.8406 11.4859C82.0382 11.397 82.221 11.2784 82.389 11.1302L82.7448 12.2864C82.5175 12.4841 82.2359 12.6422 81.8999 12.7608C81.5737 12.8695 81.2081 12.9238 80.8029 12.9238C80.378 12.9238 79.9876 12.8547 79.6319 12.7163C79.2761 12.5779 78.9994 12.3556 78.8017 12.0492C78.6041 11.733 78.5003 11.3229 78.4904 10.8189V3.62947L80.0766 3.18477ZM82.6262 5.36383V6.609H77.0674V5.36383H82.6262Z" fill="black"/>
<path d="M71.0663 5.36383L73.1564 8.53607L73.4529 8.58054L76.4621 12.7756H74.5795L72.4004 9.51442L72.0595 9.39583L69.1541 5.36383H71.0663ZM76.4176 5.36383L73.5122 9.33654L73.1861 9.32171L70.8143 12.7756H69.0059L72.1633 8.55089L72.4746 8.58054L74.5943 5.36383H76.4176Z" fill="black"/>
<path d="M65.0539 12.9238C64.3127 12.9238 63.6605 12.7707 63.0972 12.4643C62.5339 12.1579 62.0941 11.7182 61.7779 11.145C61.4715 10.5619 61.3184 9.87018 61.3184 9.06971C61.3184 8.26924 61.4715 7.58241 61.7779 7.00924C62.0941 6.42618 62.5289 5.98147 63.0824 5.67512C63.6358 5.36877 64.2633 5.21559 64.9649 5.21559C65.6864 5.21559 66.2991 5.36383 66.8031 5.6603C67.3071 5.95677 67.6925 6.36194 67.9593 6.87583C68.2261 7.38971 68.3595 7.97277 68.3595 8.625C68.3595 8.80289 68.3546 8.97089 68.3447 9.129C68.3348 9.28712 68.32 9.42547 68.3002 9.54406H62.3412V8.32853H67.6035L66.8179 8.56571C66.8179 7.89371 66.6499 7.37983 66.3139 7.02406C65.9779 6.65842 65.5184 6.47559 64.9353 6.47559C64.5104 6.47559 64.1398 6.57442 63.8235 6.77206C63.5073 6.96971 63.2652 7.26618 63.0972 7.66147C62.9292 8.04689 62.8452 8.52124 62.8452 9.08453C62.8452 9.63794 62.9341 10.1074 63.112 10.4928C63.2899 10.8782 63.5419 11.1697 63.868 11.3674C64.1941 11.565 64.5795 11.6638 65.0242 11.6638C65.5184 11.6638 65.9186 11.5699 66.2249 11.3822C66.5313 11.1944 66.7734 10.9325 66.9513 10.5965L68.2113 11.1895C68.0334 11.5452 67.7913 11.8565 67.4849 12.1234C67.1885 12.3803 66.8327 12.5779 66.4177 12.7163C66.0026 12.8547 65.548 12.9238 65.0539 12.9238Z" fill="black"/>
<path d="M59.3691 2.99207V12.7756H57.4866L53.7066 6.60901L52.7578 4.87465H52.743L52.8023 6.46077V12.7756H51.3496V2.99207H53.2174L56.9826 9.14383L57.9461 10.9078H57.9609L57.9016 9.30689V2.99207H59.3691Z" fill="black"/>
<path d="M48.1994 2.02853V10.7003C48.1994 11.0659 48.2636 11.3179 48.3921 11.4563C48.5206 11.5947 48.733 11.6638 49.0295 11.6638C49.2074 11.6638 49.3556 11.6539 49.4742 11.6342C49.6027 11.6045 49.7608 11.5551 49.9486 11.4859L49.7707 12.6718C49.6027 12.7509 49.41 12.8102 49.1926 12.8497C48.9752 12.8991 48.7578 12.9238 48.5403 12.9238C47.8782 12.9238 47.389 12.7558 47.0728 12.4198C46.7665 12.0739 46.6133 11.5452 46.6133 10.8337V2.02853H48.1994Z" fill="black"/>
<path d="M41.1344 5.21559C41.8558 5.21559 42.4932 5.36877 43.0467 5.67512C43.6001 5.98147 44.0299 6.42618 44.3363 7.00924C44.6525 7.58241 44.8107 8.26924 44.8107 9.06971C44.8107 9.87018 44.6525 10.5619 44.3363 11.145C44.0299 11.7182 43.6001 12.1579 43.0467 12.4643C42.4932 12.7707 41.8558 12.9238 41.1344 12.9238C40.413 12.9238 39.7756 12.7707 39.2222 12.4643C38.6688 12.1579 38.2339 11.7182 37.9177 11.145C37.6015 10.5619 37.4434 9.87018 37.4434 9.06971C37.4434 8.26924 37.6015 7.58241 37.9177 7.00924C38.2339 6.42618 38.6688 5.98147 39.2222 5.67512C39.7756 5.36877 40.413 5.21559 41.1344 5.21559ZM41.1344 6.46077C40.6897 6.46077 40.3092 6.56453 39.993 6.77206C39.6867 6.96971 39.4495 7.26124 39.2815 7.64665C39.1135 8.03206 39.0295 8.50642 39.0295 9.06971C39.0295 9.62312 39.1135 10.0975 39.2815 10.4928C39.4495 10.8782 39.6867 11.1747 39.993 11.3822C40.3092 11.5798 40.6897 11.6787 41.1344 11.6787C41.5791 11.6787 41.9547 11.5798 42.261 11.3822C42.5674 11.1747 42.8045 10.8782 42.9725 10.4928C43.1405 10.0975 43.2245 9.62312 43.2245 9.06971C43.2245 8.50642 43.1405 8.03206 42.9725 7.64665C42.8045 7.26124 42.5674 6.96971 42.261 6.77206C41.9547 6.56453 41.5791 6.46077 41.1344 6.46077Z" fill="black"/>
<path d="M32.3942 5.21559C33.1156 5.21559 33.753 5.36877 34.3064 5.67512C34.8598 5.98147 35.2897 6.42618 35.5961 7.00924C35.9123 7.58241 36.0704 8.26924 36.0704 9.06971C36.0704 9.87018 35.9123 10.5619 35.5961 11.145C35.2897 11.7182 34.8598 12.1579 34.3064 12.4643C33.753 12.7707 33.1156 12.9238 32.3942 12.9238C31.6728 12.9238 31.0354 12.7707 30.4819 12.4643C29.9285 12.1579 29.4937 11.7182 29.1775 11.145C28.8612 10.5619 28.7031 9.87018 28.7031 9.06971C28.7031 8.26924 28.8612 7.58241 29.1775 7.00924C29.4937 6.42618 29.9285 5.98147 30.4819 5.67512C31.0354 5.36877 31.6728 5.21559 32.3942 5.21559ZM32.3942 6.46077C31.9495 6.46077 31.569 6.56453 31.2528 6.77206C30.9464 6.96971 30.7092 7.26124 30.5412 7.64665C30.3732 8.03206 30.2892 8.50642 30.2892 9.06971C30.2892 9.62312 30.3732 10.0975 30.5412 10.4928C30.7092 10.8782 30.9464 11.1747 31.2528 11.3822C31.569 11.5798 31.9495 11.6787 32.3942 11.6787C32.8389 11.6787 33.2144 11.5798 33.5208 11.3822C33.8271 11.1747 34.0643 10.8782 34.2323 10.4928C34.4003 10.0975 34.4843 9.62312 34.4843 9.06971C34.4843 8.50642 34.4003 8.03206 34.2323 7.64665C34.0643 7.26124 33.8271 6.96971 33.5208 6.77206C33.2144 6.56453 32.8389 6.46077 32.3942 6.46077Z" fill="black"/>
<path d="M29.1975 2.99207V4.35583H25.8474V12.7756H24.2613V4.35583H20.9111V2.99207H29.1975Z" fill="black"/>
</svg>
