<svg aria-hidden="true" style="position: absolute; width: 0; height: 0; overflow: hidden;" version="1.1" xmlns="http://www.w3.org/2000/svg" xmlns:xlink="http://www.w3.org/1999/xlink">
<defs>
<symbol id="AlternateFalse" viewBox="0 0 89 15">
<path d="M3.24302 13.6391H8.70205V12.2203H3.24302V13.6391ZM3.74549 5.6761H7.79927C7.91642 5.6761 8.01892 5.63212 8.10675 5.54415C8.19458 5.45619 8.2385 5.35356 8.2385 5.23627C8.2385 5.11884 8.19458 5.01554 8.10675 4.92636C8.01892 4.83731 7.91642 4.79279 7.79927 4.79279H3.74549C3.62442 4.79279 3.5201 4.83711 3.43254 4.92575C3.34498 5.01439 3.3012 5.1179 3.3012 5.23627C3.3012 5.3545 3.34498 5.4574 3.43254 5.54496C3.5201 5.63239 3.62442 5.6761 3.74549 5.6761ZM3.74549 3.61536H7.79927C7.91642 3.61536 8.01892 3.57158 8.10675 3.48402C8.19458 3.39646 8.2385 3.29302 8.2385 3.17371C8.2385 3.05425 8.19458 2.95075 8.10675 2.86319C8.01892 2.77562 7.91642 2.73184 7.79927 2.73184H3.74549C3.62442 2.73184 3.5201 2.77583 3.43254 2.86379C3.34498 2.95162 3.3012 3.05412 3.3012 3.17127C3.3012 3.29221 3.34498 3.39646 3.43254 3.48402C3.5201 3.57158 3.62442 3.61536 3.74549 3.61536ZM11.5348 6.68955V5.38139H13.46V3.02676H11.5348V1.7184H13.3872C13.7411 1.7184 14.0484 1.83751 14.3092 2.07574C14.5699 2.31383 14.7164 2.60496 14.7489 2.94913V3.55719H16.5487C16.7331 3.55719 16.8886 3.62063 17.0153 3.74752C17.142 3.8744 17.2053 4.03013 17.2053 4.21472C17.2053 4.38916 17.142 4.54125 17.0153 4.67097C16.8886 4.80056 16.7331 4.86535 16.5487 4.86535H14.7391V5.47341C14.7068 5.81434 14.561 6.10229 14.3017 6.33728C14.0424 6.57212 13.7376 6.68955 13.3872 6.68955H11.5348ZM8.29667 10.9122H6.98851V7.09493H10.2315V1.31302H3.34011C2.77258 1.31302 2.29289 1.50895 1.90102 1.90082C1.50915 2.29268 1.31322 2.77238 1.31322 3.33991V5.06804C1.31322 5.63557 1.50915 6.11526 1.90102 6.50713C2.29289 6.89899 2.77258 7.09493 3.34011 7.09493H4.96162V10.9122H3.6484V8.39842H3.24302C2.3416 8.37572 1.5757 8.0404 0.945342 7.39247C0.315114 6.74441 0 5.9696 0 5.06804V3.33991C0 2.42321 0.327072 1.63739 0.981217 0.982433C1.63523 0.327477 2.42153 0 3.34011 0H10.149C10.5335 0 10.8605 0.134856 11.1303 0.404568C11.4 0.674279 11.5348 1.00135 11.5348 1.38578V7.02236C11.5348 7.40666 11.4 7.73374 11.1303 8.00358C10.8605 8.27329 10.5335 8.40815 10.149 8.40815H8.29667V10.9122ZM2.96818 14.9524C2.67874 14.9524 2.43416 14.851 2.23444 14.6481C2.03473 14.4453 1.93487 14.2007 1.93487 13.9142V11.9455C1.93487 11.6585 2.03473 11.4145 2.23444 11.2136C2.43416 11.0126 2.67874 10.9122 2.96818 10.9122H8.97689C9.26539 10.9122 9.51051 11.0126 9.71225 11.2136C9.91413 11.4145 10.0151 11.6585 10.0151 11.9455V13.9142C10.0151 14.2007 9.91413 14.4453 9.71225 14.6481C9.51051 14.851 9.26539 14.9524 8.97689 14.9524H2.96818Z" fill="black" />
  <path d="M80.0764 3.18457V10.5519C80.0764 10.9175 80.1703 11.1843 80.358 11.3523C80.5557 11.5203 80.8176 11.6043 81.1437 11.6043C81.4105 11.6043 81.6427 11.5648 81.8404 11.4857C82.038 11.3968 82.2208 11.2782 82.3888 11.13L82.7446 12.2862C82.5173 12.4839 82.2357 12.642 81.8997 12.7606C81.5736 12.8693 81.2079 12.9236 80.8027 12.9236C80.3778 12.9236 79.9874 12.8545 79.6317 12.7161C79.2759 12.5777 78.9992 12.3554 78.8016 12.049C78.6039 11.7328 78.5001 11.3227 78.4903 10.8187V3.62928L80.0764 3.18457ZM82.626 5.36363V6.60881H77.0672V5.36363H82.626Z" fill="black" />
  <path d="M71.0666 5.36377L73.1567 8.536L73.4532 8.58047L76.4623 12.7755H74.5798L72.4007 9.51436L72.0597 9.39577L69.1543 5.36377H71.0666ZM76.4179 5.36377L73.5125 9.33647L73.1863 9.32165L70.8146 12.7755H69.0061L72.1635 8.55083L72.4748 8.58047L74.5946 5.36377H76.4179Z" fill="black" />
  <path d="M65.0539 12.9236C64.3127 12.9236 63.6605 12.7704 63.0972 12.464C62.5339 12.1577 62.0941 11.7179 61.7779 11.1447C61.4715 10.5617 61.3184 9.86992 61.3184 9.06945C61.3184 8.26898 61.4715 7.58216 61.7779 7.00898C62.0941 6.42592 62.5289 5.98122 63.0824 5.67486C63.6358 5.36851 64.2633 5.21533 64.9649 5.21533C65.6864 5.21533 66.2991 5.36357 66.8031 5.66004C67.3071 5.95651 67.6925 6.36169 67.9593 6.87557C68.2261 7.38945 68.3595 7.97251 68.3595 8.62474C68.3595 8.80263 68.3546 8.97063 68.3447 9.12874C68.3348 9.28686 68.32 9.42522 68.3002 9.5438H62.3412V8.32827H67.6035L66.8179 8.56545C66.8179 7.89345 66.6499 7.37957 66.3139 7.0238C65.9779 6.65816 65.5184 6.47533 64.9353 6.47533C64.5104 6.47533 64.1398 6.57416 63.8235 6.7718C63.5073 6.96945 63.2652 7.26592 63.0972 7.66121C62.9292 8.04663 62.8452 8.52098 62.8452 9.08427C62.8452 9.63769 62.9341 10.1071 63.112 10.4925C63.2899 10.8779 63.5419 11.1694 63.868 11.3671C64.1941 11.5647 64.5795 11.6636 65.0242 11.6636C65.5184 11.6636 65.9186 11.5697 66.2249 11.3819C66.5313 11.1942 66.7734 10.9323 66.9513 10.5963L68.2113 11.1892C68.0334 11.545 67.7913 11.8563 67.4849 12.1231C67.1885 12.38 66.8327 12.5777 66.4177 12.716C66.0026 12.8544 65.548 12.9236 65.0539 12.9236Z" fill="black" />
  <path d="M59.3691 2.9917V12.7752H57.4866L53.7066 6.60864L52.7578 4.87429H52.743L52.8023 6.4604V12.7752H51.3496V2.9917H53.2174L56.9826 9.14346L57.9461 10.9075H57.9609L57.9016 9.30652V2.9917H59.3691Z" fill="black" />
  <path d="M48.1993 2.02832V10.7001C48.1993 11.0657 48.2635 11.3177 48.392 11.4561C48.5205 11.5944 48.7329 11.6636 49.0294 11.6636C49.2073 11.6636 49.3555 11.6537 49.4741 11.634C49.6026 11.6043 49.7607 11.5549 49.9485 11.4857L49.7706 12.6716C49.6026 12.7507 49.4099 12.81 49.1925 12.8495C48.975 12.8989 48.7576 12.9236 48.5402 12.9236C47.8781 12.9236 47.3889 12.7556 47.0727 12.4196C46.7663 12.0737 46.6132 11.545 46.6132 10.8335V2.02832H48.1993Z" fill="black" />
  <path d="M41.1342 5.21533C41.8556 5.21533 42.4931 5.36851 43.0465 5.67486C43.5999 5.98122 44.0298 6.42592 44.3361 7.00898C44.6524 7.58216 44.8105 8.26898 44.8105 9.06945C44.8105 9.86992 44.6524 10.5617 44.3361 11.1447C44.0298 11.7179 43.5999 12.1577 43.0465 12.464C42.4931 12.7704 41.8556 12.9236 41.1342 12.9236C40.4128 12.9236 39.7754 12.7704 39.222 12.464C38.6686 12.1577 38.2338 11.7179 37.9175 11.1447C37.6013 10.5617 37.4432 9.86992 37.4432 9.06945C37.4432 8.26898 37.6013 7.58216 37.9175 7.00898C38.2338 6.42592 38.6686 5.98122 39.222 5.67486C39.7754 5.36851 40.4128 5.21533 41.1342 5.21533ZM41.1342 6.46051C40.6895 6.46051 40.3091 6.56427 39.9928 6.7718C39.6865 6.96945 39.4493 7.26098 39.2813 7.64639C39.1133 8.0318 39.0293 8.50616 39.0293 9.06945C39.0293 9.62286 39.1133 10.0972 39.2813 10.4925C39.4493 10.8779 39.6865 11.1744 39.9928 11.3819C40.3091 11.5796 40.6895 11.6784 41.1342 11.6784C41.5789 11.6784 41.9545 11.5796 42.2608 11.3819C42.5672 11.1744 42.8044 10.8779 42.9724 10.4925C43.1404 10.0972 43.2244 9.62286 43.2244 9.06945C43.2244 8.50616 43.1404 8.0318 42.9724 7.64639C42.8044 7.26098 42.5672 6.96945 42.2608 6.7718C41.9545 6.56427 41.5789 6.46051 41.1342 6.46051Z" fill="black" />
  <path d="M32.3942 5.21533C33.1156 5.21533 33.753 5.36851 34.3064 5.67486C34.8598 5.98122 35.2897 6.42592 35.5961 7.00898C35.9123 7.58216 36.0704 8.26898 36.0704 9.06945C36.0704 9.86992 35.9123 10.5617 35.5961 11.1447C35.2897 11.7179 34.8598 12.1577 34.3064 12.464C33.753 12.7704 33.1156 12.9236 32.3942 12.9236C31.6728 12.9236 31.0354 12.7704 30.4819 12.464C29.9285 12.1577 29.4937 11.7179 29.1775 11.1447C28.8612 10.5617 28.7031 9.86992 28.7031 9.06945C28.7031 8.26898 28.8612 7.58216 29.1775 7.00898C29.4937 6.42592 29.9285 5.98122 30.4819 5.67486C31.0354 5.36851 31.6728 5.21533 32.3942 5.21533ZM32.3942 6.46051C31.9495 6.46051 31.569 6.56427 31.2528 6.7718C30.9464 6.96945 30.7092 7.26098 30.5412 7.64639C30.3732 8.0318 30.2892 8.50616 30.2892 9.06945C30.2892 9.62286 30.3732 10.0972 30.5412 10.4925C30.7092 10.8779 30.9464 11.1744 31.2528 11.3819C31.569 11.5796 31.9495 11.6784 32.3942 11.6784C32.8389 11.6784 33.2144 11.5796 33.5208 11.3819C33.8271 11.1744 34.0643 10.8779 34.2323 10.4925C34.4003 10.0972 34.4843 9.62286 34.4843 9.06945C34.4843 8.50616 34.4003 8.0318 34.2323 7.64639C34.0643 7.26098 33.8271 6.96945 33.5208 6.7718C33.2144 6.56427 32.8389 6.46051 32.3942 6.46051Z" fill="black" />
  <path d="M29.1975 2.9917V4.35546H25.8474V12.7752H24.2613V4.35546H20.9111V2.9917H29.1975Z"/>
</symbol>
<symbol id="arrow_back" viewBox="0 0 32 32">
<path stroke-linejoin="miter" stroke-linecap="butt" stroke-miterlimit="4" stroke-width="1.3333" d="M16.010 6.249c0.114 0 0.212 0.035 0.322 0.145 0.11 0.115 0.145 0.217 0.145 0.332-0 0.116-0.035 0.214-0.145 0.324l-8.482 8.482h17.88c0.162 0 0.262 0.047 0.348 0.132 0.083 0.082 0.129 0.177 0.129 0.337s-0.046 0.255-0.129 0.337c-0.085 0.084-0.186 0.131-0.348 0.132h-17.88l8.474 8.473c0.11 0.11 0.147 0.212 0.148 0.335v0.001c0.001 0.089-0.019 0.167-0.074 0.246l-0.069 0.082c-0.107 0.108-0.204 0.143-0.323 0.142-0.126-0.001-0.23-0.041-0.341-0.151l-9.264-9.264c-0.071-0.072-0.105-0.128-0.121-0.167v-0.001c-0.020-0.048-0.031-0.102-0.031-0.165s0.012-0.116 0.031-0.163v-0.001c0.016-0.038 0.050-0.095 0.121-0.167l9.267-9.267c0.121-0.116 0.227-0.152 0.342-0.152z"></path>
</symbol>
<symbol id="arrow_back_ios_new" viewBox="0 0 32 32">
<path d="M12.474 16l10.404 10.404c0.266 0.271 0.4 0.61 0.402 1.016s-0.131 0.756-0.402 1.050c-0.293 0.288-0.643 0.432-1.050 0.432s-0.754-0.144-1.042-0.432l-10.879-10.879c-0.227-0.227-0.391-0.478-0.493-0.754s-0.153-0.555-0.153-0.837 0.051-0.561 0.153-0.837c0.102-0.276 0.266-0.528 0.493-0.754l10.912-10.904c0.288-0.293 0.628-0.436 1.021-0.427s0.738 0.159 1.037 0.452c0.266 0.293 0.404 0.638 0.415 1.033s-0.127 0.74-0.415 1.033l-10.404 10.404z"></path>
</symbol>
<symbol id="arrow_forward" viewBox="0 0 32 32">
<path stroke-linejoin="miter" stroke-linecap="butt" stroke-miterlimit="4" stroke-width="1.3333" d="M15.993 6.253c0.095 0.001 0.177 0.023 0.259 0.081l0.082 0.070 9.264 9.264c0.071 0.072 0.105 0.128 0.121 0.167v0.001c0.020 0.048 0.031 0.102 0.031 0.165s-0.012 0.116-0.031 0.163v0.001c-0.016 0.038-0.050 0.094-0.121 0.167l-9.272 9.264c-0.122 0.12-0.227 0.155-0.337 0.155-0.108-0-0.204-0.033-0.315-0.147l-0.007-0.007-0.069-0.081c-0.056-0.079-0.075-0.157-0.075-0.243s0.020-0.163 0.075-0.242l0.069-0.081 8.482-8.482h-17.88c-0.163-0-0.259-0.047-0.34-0.128h-0.001c-0.081-0.081-0.128-0.179-0.128-0.341s0.046-0.26 0.128-0.341h0.001c0.081-0.081 0.177-0.127 0.34-0.128h17.88l-8.474-8.474c-0.082-0.082-0.124-0.16-0.141-0.246l-0.008-0.090c-0.001-0.12 0.034-0.218 0.141-0.326l0.001-0.001c0.107-0.107 0.205-0.143 0.324-0.142z"></path>
</symbol>
<symbol id="arrow_forward_ios" viewBox="0 0 32 32">
<path d="M19.509 15.933l-10.404-10.404c-0.271-0.271-0.408-0.609-0.41-1.012s0.131-0.75 0.402-1.038c0.293-0.293 0.643-0.44 1.050-0.44s0.754 0.147 1.042 0.44l10.879 10.863c0.227 0.227 0.391 0.478 0.493 0.754s0.153 0.555 0.153 0.837-0.051 0.561-0.153 0.837c-0.102 0.276-0.266 0.528-0.493 0.754l-10.904 10.904c-0.293 0.293-0.636 0.435-1.029 0.423s-0.736-0.163-1.029-0.457c-0.271-0.293-0.412-0.636-0.423-1.029s0.13-0.736 0.423-1.029l10.404-10.404z"></path>
</symbol>
<symbol id="checkbook" viewBox="0 0 32 32">
<path d="M8.93 19.78h9.826c0.332 0 0.581-0.103 0.748-0.311s0.25-0.435 0.25-0.683c0-0.248-0.083-0.478-0.25-0.689s-0.416-0.317-0.748-0.317h-9.826c-0.282 0-0.519 0.097-0.711 0.289s-0.287 0.432-0.287 0.717c0 0.285 0.096 0.522 0.287 0.711s0.429 0.283 0.711 0.283zM8.932 13.903h5.7c0.283 0 0.521-0.096 0.712-0.289s0.288-0.431 0.288-0.717c0-0.285-0.096-0.522-0.288-0.711s-0.429-0.283-0.712-0.283h-5.7c-0.283 0-0.521 0.096-0.713 0.289s-0.287 0.432-0.287 0.717c0 0.285 0.096 0.522 0.287 0.711s0.429 0.283 0.713 0.283zM4.738 25.437c-0.63 0-1.166-0.221-1.608-0.663s-0.663-0.978-0.663-1.608v-14.515c0-0.632 0.221-1.17 0.663-1.614s0.978-0.665 1.608-0.665h22.523c0.632 0 1.17 0.222 1.614 0.665s0.665 0.981 0.665 1.614v3.173c0 0.32-0.111 0.59-0.334 0.808s-0.495 0.327-0.816 0.327c-0.322 0-0.59-0.109-0.806-0.327s-0.323-0.488-0.323-0.808v-3.173h-22.523v14.482h9.928c0.32 0 0.59 0.11 0.808 0.329s0.328 0.49 0.328 0.812-0.109 0.597-0.328 0.823c-0.218 0.227-0.488 0.34-0.808 0.34h-9.928zM30.683 15.888c0.143 0.143 0.214 0.318 0.214 0.524s-0.073 0.38-0.218 0.52l-1.205 1.213-1.858-1.858 1.276-1.284c0.133-0.138 0.284-0.207 0.454-0.207s0.321 0.069 0.454 0.207l0.884 0.884zM28.583 19.037l-8.767 8.767c-0.123 0.122-0.251 0.208-0.382 0.257s-0.267 0.075-0.407 0.075h-0.846c-0.149 0-0.281-0.057-0.394-0.17s-0.17-0.245-0.17-0.394v-0.838c0-0.14 0.026-0.276 0.078-0.408s0.14-0.259 0.261-0.38l8.767-8.767 1.858 1.858z"></path>
</symbol>
<symbol id="close" viewBox="0 0 32 32">
<path stroke-linejoin="miter" stroke-linecap="butt" stroke-miterlimit="4" stroke-width="1.3333" d="M23.466 7.9c0.219 0 0.355 0.065 0.462 0.172s0.172 0.242 0.172 0.461c0 0.219-0.065 0.355-0.172 0.462l-7.005 7.005 7.005 7.004c0.107 0.107 0.172 0.243 0.172 0.462s-0.065 0.355-0.172 0.462-0.243 0.172-0.462 0.172c-0.219-0-0.355-0.065-0.462-0.172l-7.004-7.005-7.005 7.005c-0.107 0.107-0.243 0.172-0.462 0.172s-0.354-0.065-0.461-0.172c-0.107-0.107-0.172-0.243-0.172-0.462s0.065-0.355 0.172-0.462l7.004-7.004-7.004-7.005c-0.107-0.107-0.172-0.243-0.172-0.462s0.065-0.354 0.172-0.461 0.242-0.172 0.461-0.172c0.219 0 0.355 0.065 0.462 0.172l7.005 7.004 7.004-7.004c0.107-0.107 0.243-0.172 0.462-0.172z"></path>
</symbol>
<symbol id="delete" viewBox="0 0 32 32">
<path d="M8.637 28.199c-0.632 0-1.17-0.221-1.614-0.663s-0.665-0.978-0.665-1.608v-18.865h-0.367c-0.321 0-0.59-0.11-0.808-0.329s-0.327-0.49-0.327-0.812c0-0.322 0.109-0.591 0.327-0.806s0.488-0.323 0.808-0.323h5.474c0-0.326 0.109-0.598 0.328-0.816s0.488-0.327 0.808-0.327h6.792c0.32 0 0.59 0.111 0.808 0.332s0.327 0.492 0.327 0.812h5.482c0.321 0 0.59 0.11 0.808 0.329s0.327 0.49 0.327 0.812c0 0.322-0.109 0.591-0.327 0.807s-0.488 0.323-0.808 0.323h-0.367v18.865c0 0.63-0.222 1.166-0.665 1.608s-0.981 0.663-1.614 0.663h-14.727zM23.364 7.064h-14.727v18.865h14.727v-18.865zM13.204 23.125c0.304 0 0.556-0.103 0.759-0.308s0.303-0.458 0.303-0.755v-11.173c0-0.298-0.103-0.549-0.31-0.755s-0.46-0.309-0.759-0.309c-0.306 0-0.56 0.103-0.763 0.309s-0.303 0.457-0.303 0.755v11.173c0 0.298 0.103 0.55 0.309 0.755s0.461 0.308 0.765 0.308zM18.815 23.125c0.3 0 0.552-0.103 0.757-0.308s0.307-0.458 0.307-0.755v-11.173c0-0.298-0.104-0.549-0.312-0.755s-0.463-0.309-0.764-0.309c-0.302 0-0.555 0.103-0.76 0.309s-0.307 0.457-0.307 0.755v11.173c0 0.298 0.105 0.55 0.315 0.755s0.465 0.308 0.765 0.308z"></path>
</symbol>
<symbol id="facebook" viewBox="0 0 32 32">
<path d="M29.333 16.405c0-7.409-5.969-13.415-13.333-13.415s-13.333 6.006-13.333 13.415c0 6.696 4.876 12.245 11.25 13.252v-9.374h-3.385v-3.878h3.385v-2.955c0-3.362 1.991-5.219 5.036-5.219 1.459 0 2.985 0.262 2.985 0.262v3.301h-1.681c-1.656 0-2.173 1.034-2.173 2.095v2.516h3.698l-0.591 3.878h-3.107v9.374c6.374-1.006 11.25-6.556 11.25-13.252z"></path>
</symbol>
<symbol id="instagram" viewBox="0 0 32 32">
<path d="M16.006 6.488c3.206 0 3.585 0.014 4.846 0.071 1.172 0.052 1.804 0.248 2.227 0.412 0.558 0.216 0.961 0.478 1.378 0.895 0.422 0.422 0.679 0.82 0.9 1.378 0.164 0.422 0.361 1.059 0.412 2.226 0.056 1.266 0.071 1.645 0.071 4.847s-0.014 3.585-0.071 4.847c-0.052 1.172-0.248 1.804-0.412 2.226-0.216 0.558-0.478 0.961-0.895 1.378-0.422 0.422-0.82 0.679-1.377 0.9-0.422 0.164-1.060 0.361-2.227 0.412-1.266 0.056-1.645 0.071-4.847 0.071s-3.585-0.014-4.847-0.071c-1.172-0.052-1.804-0.248-2.226-0.412-0.558-0.216-0.961-0.478-1.378-0.895-0.422-0.422-0.679-0.82-0.9-1.378-0.164-0.422-0.361-1.060-0.412-2.226-0.056-1.266-0.071-1.645-0.071-4.847s0.014-3.585 0.071-4.847c0.052-1.172 0.248-1.804 0.412-2.226 0.216-0.558 0.478-0.961 0.895-1.378 0.422-0.422 0.82-0.679 1.378-0.9 0.422-0.164 1.059-0.361 2.226-0.412 1.261-0.056 1.641-0.071 4.847-0.071h0.001zM16.006 4.327c-3.258 0-3.665 0.014-4.945 0.071-1.275 0.056-2.151 0.262-2.91 0.558-0.792 0.309-1.462 0.717-2.127 1.387-0.67 0.666-1.078 1.336-1.387 2.123-0.295 0.764-0.502 1.636-0.558 2.91-0.056 1.285-0.071 1.692-0.071 4.949s0.014 3.665 0.071 4.945c0.056 1.275 0.262 2.151 0.558 2.91 0.31 0.792 0.717 1.462 1.387 2.127 0.665 0.665 1.336 1.078 2.123 1.383 0.764 0.295 1.636 0.502 2.91 0.558 1.279 0.056 1.687 0.070 4.945 0.070s3.665-0.014 4.945-0.070c1.275-0.056 2.151-0.263 2.91-0.558 0.787-0.304 1.458-0.717 2.123-1.383s1.078-1.336 1.383-2.123c0.295-0.764 0.502-1.636 0.558-2.91 0.056-1.279 0.070-1.687 0.070-4.945s-0.014-3.665-0.070-4.945c-0.056-1.275-0.263-2.151-0.558-2.91-0.295-0.797-0.703-1.467-1.373-2.133-0.665-0.665-1.336-1.078-2.123-1.383-0.764-0.295-1.636-0.502-2.91-0.558-1.284-0.061-1.692-0.075-4.949-0.075l-0.001 0.001z"></path>
<path d="M16.007 10.162c-3.402 0-6.163 2.76-6.163 6.163s2.76 6.163 6.163 6.163 6.163-2.76 6.163-6.163c0-3.402-2.76-6.163-6.163-6.163zM16.007 20.323c-2.208 0-3.998-1.79-3.998-3.998s1.79-3.998 3.998-3.998 3.998 1.79 3.998 3.998c0 2.208-1.79 3.998-3.998 3.998z"></path>
<path d="M23.852 9.919c0 0.795-0.644 1.439-1.439 1.439s-1.439-0.644-1.439-1.439 0.644-1.439 1.439-1.439c0.795 0 1.439 0.644 1.439 1.439z"></path>
</symbol>
<symbol id="keyboard_arrow_down" viewBox="0 0 32 32">
<path stroke-linejoin="miter" stroke-linecap="butt" stroke-miterlimit="4" stroke-width="1.3333" d="M9.449 12.031c0.134 0 0.237 0.041 0.341 0.145l6.208 6.244 6.243-6.244c0.104-0.103 0.192-0.133 0.299-0.129 0.126 0.005 0.234 0.048 0.349 0.163 0.104 0.104 0.145 0.207 0.145 0.341s-0.041 0.236-0.145 0.34l-6.559 6.559c-0.072 0.072-0.129 0.107-0.167 0.122-0.047 0.020-0.101 0.031-0.165 0.031-0.033 0-0.062-0.004-0.090-0.009l-0.077-0.022-0.070-0.040c-0.028-0.019-0.059-0.046-0.095-0.082l-6.592-6.591c-0.098-0.098-0.133-0.191-0.129-0.318 0.005-0.143 0.053-0.255 0.163-0.365 0.104-0.104 0.206-0.144 0.34-0.145z"></path>
</symbol>
<symbol id="keyboard_arrow_up" viewBox="0 0 32 32">
<path stroke-linejoin="miter" stroke-linecap="butt" stroke-miterlimit="4" stroke-width="1.3333" d="M16 11.605c0.125 0 0.227 0.038 0.333 0.145l6.591 6.592c0.109 0.109 0.145 0.208 0.145 0.324s-0.035 0.215-0.145 0.324c-0.104 0.104-0.207 0.145-0.341 0.145s-0.236-0.041-0.34-0.145l-0.001-0.001-6.243-6.207-6.241 6.241c-0.104 0.104-0.192 0.133-0.299 0.129-0.126-0.005-0.234-0.047-0.349-0.161-0.104-0.104-0.145-0.207-0.145-0.341s0.040-0.237 0.145-0.341l6.559-6.559c0.107-0.107 0.207-0.144 0.332-0.145z"></path>
</symbol>
<symbol id="logout" viewBox="0 0 32 32">
<path d="M6.072 28.199c-0.613 0-1.145-0.225-1.595-0.676s-0.676-0.982-0.676-1.595v-19.857c0-0.616 0.225-1.149 0.676-1.601s0.982-0.678 1.595-0.678h8.807c0.321 0 0.59 0.111 0.808 0.334s0.327 0.495 0.327 0.816c0 0.322-0.109 0.59-0.327 0.806s-0.487 0.323-0.808 0.323h-8.807v19.857h8.807c0.321 0 0.59 0.11 0.808 0.329s0.327 0.49 0.327 0.812c0 0.322-0.109 0.591-0.327 0.806s-0.487 0.323-0.808 0.323h-8.807zM23.856 17.136h-10.768c-0.32 0-0.59-0.11-0.808-0.329s-0.327-0.49-0.327-0.812c0-0.322 0.109-0.591 0.327-0.806s0.488-0.323 0.808-0.323h10.701l-2.564-2.564c-0.227-0.228-0.334-0.495-0.323-0.8s0.13-0.571 0.357-0.795c0.226-0.229 0.496-0.342 0.81-0.34s0.585 0.117 0.815 0.344l4.529 4.529c0.221 0.228 0.332 0.494 0.332 0.797s-0.111 0.568-0.332 0.794l-4.496 4.496c-0.222 0.226-0.486 0.335-0.792 0.327s-0.577-0.126-0.812-0.352c-0.218-0.227-0.328-0.497-0.331-0.811s0.112-0.586 0.344-0.813l2.531-2.539z"></path>
</symbol>
<symbol id="manage_accounts" viewBox="0 0 32 32">
<path d="M13.332 15.73c-1.526 0-2.774-0.485-3.743-1.454s-1.454-2.217-1.454-3.744 0.485-2.775 1.454-3.745c0.969-0.971 2.217-1.456 3.743-1.456s2.776 0.485 3.749 1.456c0.973 0.97 1.46 2.219 1.46 3.745s-0.487 2.774-1.46 3.744c-0.973 0.969-2.223 1.454-3.749 1.454zM2.467 24.565v-1.077c0-0.837 0.213-1.591 0.639-2.262s1.007-1.176 1.742-1.514c1.287-0.573 2.614-1.042 3.981-1.408s2.766-0.549 4.199-0.549c0.327 0 0.599 0.109 0.817 0.327s0.326 0.488 0.326 0.81c0 0.328-0.11 0.601-0.331 0.82s-0.491 0.329-0.812 0.329c-1.262 0-2.498 0.152-3.708 0.455s-2.383 0.739-3.521 1.308c-0.308 0.176-0.561 0.414-0.761 0.714s-0.3 0.634-0.3 1.001v1.046h8.331c0.32 0 0.59 0.11 0.808 0.329s0.327 0.49 0.327 0.812-0.109 0.591-0.327 0.806c-0.218 0.215-0.487 0.323-0.808 0.323h-8.331c-0.63 0-1.166-0.223-1.608-0.667s-0.663-0.979-0.663-1.604zM22.213 27.385l-0.225-1.409c-0.367-0.106-0.74-0.262-1.118-0.467s-0.695-0.439-0.952-0.701l-1.235 0.259c-0.194 0.050-0.378 0.038-0.553-0.037s-0.311-0.195-0.41-0.362l-0.205-0.349c-0.119-0.194-0.161-0.39-0.128-0.589s0.125-0.371 0.274-0.515l1.076-1.009c-0.050-0.184-0.073-0.45-0.071-0.797s0.026-0.61 0.071-0.788l-1.084-1.027c-0.143-0.12-0.232-0.283-0.266-0.489s0.008-0.394 0.125-0.566l0.207-0.415c0.099-0.169 0.228-0.285 0.389-0.347s0.338-0.070 0.532-0.026l1.276 0.259c0.256-0.256 0.573-0.488 0.952-0.697s0.751-0.363 1.118-0.464l0.225-1.401c0.046-0.247 0.156-0.447 0.33-0.6s0.378-0.23 0.61-0.23h0.3c0.227 0 0.427 0.077 0.6 0.231s0.285 0.351 0.335 0.591l0.228 1.408c0.36 0.101 0.731 0.256 1.112 0.465s0.699 0.441 0.954 0.697l1.244-0.259c0.188-0.044 0.371-0.031 0.547 0.041s0.312 0.194 0.407 0.366l0.204 0.339c0.119 0.201 0.161 0.399 0.125 0.596s-0.129 0.366-0.278 0.51l-1.076 1.017c0.055 0.182 0.081 0.446 0.079 0.792s-0.029 0.611-0.079 0.795l1.074 1.007c0.151 0.129 0.244 0.297 0.28 0.504s-0.004 0.397-0.121 0.568l-0.208 0.416c-0.099 0.172-0.231 0.286-0.394 0.345s-0.342 0.065-0.535 0.021l-1.268-0.259c-0.256 0.261-0.574 0.495-0.955 0.701s-0.752 0.362-1.114 0.467l-0.225 1.401c-0.050 0.245-0.163 0.443-0.338 0.595s-0.377 0.228-0.606 0.228h-0.293c-0.228 0-0.431-0.076-0.607-0.228s-0.286-0.347-0.331-0.587zM23.301 24.030c0.783 0 1.415-0.241 1.897-0.721s0.722-1.115 0.722-1.901-0.241-1.421-0.722-1.902c-0.482-0.481-1.114-0.721-1.898-0.721s-1.417 0.241-1.9 0.722c-0.484 0.481-0.725 1.113-0.725 1.897 0 0.789 0.242 1.424 0.726 1.905s1.118 0.721 1.901 0.721zM13.332 13.459c0.846 0 1.546-0.276 2.1-0.829s0.83-1.252 0.83-2.099c0-0.849-0.276-1.549-0.829-2.101s-1.251-0.827-2.098-0.827c-0.846 0-1.546 0.276-2.1 0.828s-0.83 1.251-0.83 2.097c0 0.848 0.276 1.549 0.829 2.102s1.252 0.83 2.098 0.83z"></path>
</symbol>
<symbol id="menu" viewBox="0 0 32 32">
<path d="M4.936 24.295c-0.321 0-0.59-0.11-0.808-0.329s-0.327-0.493-0.327-0.82c0-0.322 0.109-0.591 0.327-0.807s0.488-0.323 0.808-0.323h22.127c0.321 0 0.591 0.11 0.812 0.329s0.331 0.49 0.331 0.812c0 0.328-0.11 0.599-0.331 0.814s-0.492 0.323-0.812 0.323h-22.127zM4.936 17.136c-0.321 0-0.59-0.11-0.808-0.329s-0.327-0.49-0.327-0.812c0-0.322 0.109-0.591 0.327-0.806s0.488-0.323 0.808-0.323h22.127c0.321 0 0.591 0.11 0.812 0.329s0.331 0.49 0.331 0.812c0 0.322-0.11 0.591-0.331 0.806s-0.492 0.323-0.812 0.323h-22.127zM4.936 9.984c-0.321 0-0.59-0.11-0.808-0.329s-0.327-0.493-0.327-0.82c0-0.322 0.109-0.591 0.327-0.806s0.488-0.323 0.808-0.323h22.127c0.321 0 0.591 0.11 0.812 0.329s0.331 0.49 0.331 0.812c0 0.328-0.11 0.599-0.331 0.815s-0.492 0.323-0.812 0.323h-22.127z"></path>
</symbol>
<symbol id="Relume" viewBox="0 0 32 32">
<path d="M27.64 9.493l-0.187-0.333c-0.241-0.403-0.58-0.738-0.987-0.973l-8.947-5.16c-0.405-0.235-0.865-0.359-1.333-0.36h-0.387c-0.468 0.001-0.928 0.125-1.333 0.36l-8.947 5.173c-0.404 0.234-0.74 0.569-0.973 0.973l-0.187 0.333c-0.235 0.405-0.359 0.865-0.36 1.333v10.333c0.001 0.468 0.125 0.928 0.36 1.333l0.187 0.333c0.24 0.399 0.574 0.734 0.973 0.973l8.96 5.16c0.403 0.24 0.864 0.364 1.333 0.36h0.373c0.468-0.001 0.928-0.125 1.333-0.36l8.947-5.173c0.408-0.228 0.745-0.565 0.973-0.973l0.2-0.333c0.232-0.406 0.356-0.865 0.36-1.333v-10.333c-0.001-0.468-0.125-0.928-0.36-1.333zM15.8 5.333h0.387l7.813 4.507-8 4.613-8-4.613 7.8-4.507zM17.333 26l7.8-4.507 0.2-0.333v-9.013l-8 4.627v9.227z"></path>
</symbol>
<symbol id="service_toolbox" viewBox="0 0 32 32">
<path d="M10.1 7.493v-1.7c0-0.576 0.203-1.070 0.61-1.48s0.899-0.616 1.478-0.616h7.558c0.579 0 1.071 0.205 1.478 0.616s0.61 0.904 0.61 1.48v1.7h2.133c0.432 0 0.833 0.106 1.204 0.319s0.641 0.524 0.813 0.934l3.251 7.709c0.127 0.26 0.21 0.526 0.249 0.798s0.058 0.545 0.058 0.817v6.525c0 0.63-0.222 1.166-0.665 1.608s-0.981 0.663-1.614 0.663h-22.523c-0.63 0-1.166-0.221-1.608-0.663s-0.663-0.978-0.663-1.608v-6.525c0-0.272 0.019-0.545 0.058-0.817s0.119-0.538 0.241-0.798l3.184-7.709c0.172-0.41 0.443-0.721 0.813-0.934s0.772-0.319 1.204-0.319h2.133zM12.188 7.493h7.558v-1.7h-7.558v1.7zM9.538 16.367v-0.567c0-0.283 0.096-0.521 0.289-0.713s0.432-0.287 0.717-0.287c0.285 0 0.522 0.096 0.713 0.287s0.285 0.429 0.285 0.713v0.567h8.915v-0.567c0-0.283 0.097-0.521 0.291-0.713s0.433-0.287 0.718-0.287c0.285 0 0.522 0.096 0.711 0.287s0.283 0.429 0.283 0.713v0.567h4.233l-2.75-6.595h-15.889l-2.751 6.595h4.233zM9.538 18.367h-4.8v6.228h22.523v-6.228h-4.8v0.567c0 0.283-0.096 0.521-0.289 0.712s-0.431 0.288-0.717 0.288c-0.285 0-0.522-0.096-0.713-0.288s-0.285-0.429-0.285-0.712v-0.567h-8.915v0.567c0 0.283-0.097 0.521-0.291 0.712s-0.433 0.288-0.718 0.288c-0.285 0-0.522-0.096-0.711-0.288s-0.283-0.429-0.283-0.712v-0.567z"></path>
</symbol>
<symbol id="star-filled" viewBox="0 0 32 32">
<path d="M15.999 23.257l-6.216 3.749c-0.21 0.127-0.428 0.184-0.654 0.17s-0.428-0.084-0.605-0.211c-0.177-0.127-0.308-0.291-0.394-0.493s-0.104-0.429-0.054-0.684l1.641-7.083-5.482-4.783c-0.199-0.171-0.321-0.365-0.365-0.58s-0.038-0.425 0.017-0.63c0.050-0.204 0.164-0.377 0.344-0.518s0.396-0.222 0.65-0.245l7.249-0.633 2.808-6.691c0.1-0.232 0.25-0.404 0.452-0.518s0.405-0.17 0.609-0.17 0.407 0.057 0.609 0.17c0.202 0.113 0.353 0.286 0.452 0.518l2.808 6.691 7.257 0.633c0.249 0.022 0.463 0.104 0.642 0.245s0.294 0.313 0.344 0.518c0.055 0.204 0.061 0.414 0.017 0.63s-0.165 0.409-0.365 0.58l-5.482 4.783 1.641 7.083c0.050 0.254 0.032 0.482-0.054 0.684s-0.217 0.366-0.394 0.493c-0.177 0.127-0.379 0.198-0.605 0.211s-0.445-0.043-0.654-0.17l-6.216-3.749z"></path>
</symbol>
<symbol id="star" viewBox="0 0 32 32">
<path d="M10.878 23.674l5.122-3.062 5.122 3.095-1.376-5.798 4.504-3.92-5.939-0.517-2.311-5.472-2.311 5.447-5.939 0.509 4.504 3.912-1.376 5.806zM15.999 23.257l-6.216 3.749c-0.21 0.127-0.428 0.184-0.654 0.17s-0.428-0.084-0.605-0.211c-0.177-0.127-0.308-0.291-0.394-0.493s-0.104-0.429-0.054-0.684l1.641-7.083-5.482-4.783c-0.199-0.171-0.321-0.365-0.365-0.58s-0.038-0.425 0.017-0.63c0.050-0.204 0.164-0.377 0.344-0.518s0.396-0.222 0.65-0.245l7.249-0.633 2.808-6.691c0.1-0.232 0.25-0.404 0.452-0.518s0.405-0.17 0.609-0.17 0.407 0.057 0.609 0.17c0.202 0.113 0.353 0.286 0.452 0.518l2.808 6.691 7.257 0.633c0.249 0.022 0.463 0.104 0.642 0.245s0.294 0.313 0.344 0.518c0.055 0.204 0.061 0.414 0.017 0.63s-0.165 0.409-0.365 0.58l-5.482 4.783 1.641 7.083c0.050 0.254 0.032 0.482-0.054 0.684s-0.217 0.366-0.394 0.493c-0.177 0.127-0.379 0.198-0.605 0.211s-0.445-0.043-0.654-0.17l-6.216-3.749z"></path>
</symbol>
<symbol id="star_half" viewBox="0 0 32 32">
<path d="M15.999 7.999v12.613l5.122 3.095-1.376-5.798 4.504-3.92-5.939-0.517-2.311-5.472zM15.999 23.257l-6.216 3.749c-0.21 0.127-0.428 0.184-0.654 0.17s-0.428-0.084-0.605-0.211c-0.177-0.127-0.308-0.291-0.394-0.493s-0.104-0.429-0.054-0.684l1.641-7.083-5.482-4.783c-0.199-0.171-0.321-0.365-0.365-0.58s-0.038-0.425 0.017-0.63c0.050-0.204 0.164-0.377 0.344-0.518s0.396-0.222 0.65-0.245l7.249-0.633 2.808-6.691c0.1-0.232 0.25-0.404 0.452-0.518s0.405-0.17 0.609-0.17 0.407 0.057 0.609 0.17c0.202 0.113 0.353 0.286 0.452 0.518l2.808 6.691 7.257 0.633c0.249 0.022 0.463 0.104 0.642 0.245s0.294 0.313 0.344 0.518c0.055 0.204 0.061 0.414 0.017 0.63s-0.165 0.409-0.365 0.58l-5.482 4.783 1.641 7.083c0.050 0.254 0.032 0.482-0.054 0.684s-0.217 0.366-0.394 0.493c-0.177 0.127-0.379 0.198-0.605 0.211s-0.445-0.043-0.654-0.17l-6.216-3.749z"></path>
</symbol>
<symbol id="icon-logo" viewBox="0 0 177 32">
<path d="M6.918 29.097h11.646v-3.027h-11.646v3.027zM7.99 12.109h8.648c0.25 0 0.469-0.094 0.656-0.281s0.281-0.407 0.281-0.657c0-0.251-0.094-0.471-0.281-0.661s-0.406-0.285-0.656-0.285h-8.648c-0.258 0-0.481 0.095-0.668 0.284s-0.28 0.41-0.28 0.662c0 0.252 0.093 0.472 0.28 0.659s0.409 0.28 0.668 0.28zM7.99 7.713h8.648c0.25 0 0.469-0.093 0.656-0.28s0.281-0.407 0.281-0.662c0-0.255-0.094-0.476-0.281-0.662s-0.406-0.28-0.656-0.28h-8.648c-0.258 0-0.481 0.094-0.668 0.282s-0.28 0.406-0.28 0.656c0 0.258 0.093 0.48 0.28 0.667s0.409 0.28 0.668 0.28zM24.608 14.271v-2.791h4.107v-5.023h-4.107v-2.791h3.952c0.755 0 1.411 0.254 1.967 0.762s0.869 1.129 0.938 1.863v1.297h3.84c0.393 0 0.725 0.135 0.995 0.406s0.405 0.603 0.405 0.997c0 0.372-0.135 0.697-0.405 0.973s-0.602 0.415-0.995 0.415h-3.86v1.297c-0.069 0.727-0.38 1.342-0.933 1.843s-1.203 0.752-1.951 0.752h-3.952zM17.7 23.279h-2.791v-8.143h6.918v-12.335h-14.702c-1.211 0-2.234 0.418-3.070 1.254s-1.254 1.859-1.254 3.070v3.687c0 1.211 0.418 2.234 1.254 3.070s1.859 1.254 3.070 1.254h3.459v8.143h-2.802v-5.363h-0.865c-1.923-0.048-3.557-0.764-4.902-2.146s-2.017-3.035-2.017-4.959v-3.687c0-1.956 0.698-3.632 2.093-5.029s3.073-2.096 5.032-2.096h14.526c0.82 0 1.518 0.288 2.093 0.863s0.863 1.273 0.863 2.093v12.025c0 0.82-0.288 1.518-0.863 2.093s-1.273 0.863-2.093 0.863h-3.952v5.342zM6.332 31.898c-0.617 0-1.139-0.216-1.565-0.649s-0.639-0.954-0.639-1.566v-4.2c0-0.612 0.213-1.133 0.639-1.561s0.948-0.643 1.565-0.643h12.819c0.615 0 1.138 0.214 1.569 0.643s0.646 0.949 0.646 1.561v4.2c0 0.611-0.215 1.133-0.646 1.566s-0.953 0.649-1.569 0.649h-12.819z"></path>
<path d="M170.83 6.794v15.717c0 0.78 0.2 1.349 0.601 1.708 0.422 0.358 0.98 0.538 1.676 0.538 0.569 0 1.065-0.084 1.486-0.253 0.422-0.19 0.812-0.443 1.17-0.759l0.759 2.467c-0.485 0.422-1.086 0.759-1.802 1.012-0.696 0.232-1.476 0.348-2.34 0.348-0.906 0-1.739-0.147-2.498-0.443s-1.349-0.77-1.771-1.423c-0.422-0.675-0.643-1.549-0.664-2.625v-15.337l3.384-0.949zM176.269 11.442v2.656h-11.859v-2.656h11.859z"></path>
<path d="M151.608 11.443l4.459 6.767 0.633 0.095 6.42 8.949h-4.016l-4.649-6.957-0.727-0.253-6.198-8.602h4.079zM163.024 11.443l-6.198 8.475-0.696-0.032-5.060 7.368h-3.858l6.736-9.013 0.664 0.063 4.522-6.862h3.89z"></path>
<path d="M138.782 27.57c-1.581 0-2.973-0.327-4.174-0.98s-2.14-1.592-2.815-2.814c-0.654-1.244-0.98-2.72-0.98-4.427s0.327-3.173 0.98-4.396c0.675-1.244 1.602-2.193 2.783-2.846s2.519-0.98 4.016-0.98c1.539 0 2.846 0.316 3.922 0.949s1.897 1.497 2.467 2.593c0.569 1.096 0.854 2.34 0.854 3.732 0 0.38-0.010 0.738-0.032 1.075s-0.053 0.633-0.095 0.885h-12.713v-2.593h11.226l-1.676 0.506c0-1.434-0.358-2.53-1.075-3.289-0.717-0.78-1.697-1.17-2.941-1.17-0.906 0-1.697 0.211-2.372 0.632s-1.191 1.054-1.549 1.897c-0.358 0.822-0.538 1.834-0.538 3.036 0 1.181 0.19 2.182 0.569 3.004s0.917 1.444 1.613 1.866c0.696 0.422 1.518 0.633 2.467 0.633 1.054 0 1.908-0.2 2.561-0.601s1.17-0.959 1.55-1.676l2.688 1.265c-0.38 0.759-0.896 1.423-1.55 1.992-0.632 0.548-1.391 0.97-2.277 1.265s-1.855 0.443-2.909 0.443z"></path>
<path d="M126.654 6.382v20.871h-4.016l-8.064-13.155-2.024-3.7h-0.032l0.126 3.384v13.472h-3.099v-20.871h3.985l8.032 13.124 2.055 3.763h0.032l-0.126-3.415v-13.472h3.131z"></path>
<path d="M102.825 4.327v18.5c0 0.78 0.137 1.318 0.411 1.613s0.727 0.443 1.36 0.443c0.38 0 0.696-0.021 0.949-0.063 0.274-0.063 0.611-0.169 1.012-0.316l-0.38 2.53c-0.358 0.169-0.769 0.295-1.233 0.38-0.464 0.105-0.928 0.158-1.392 0.158-1.412 0-2.456-0.358-3.131-1.075-0.653-0.738-0.98-1.866-0.98-3.384v-18.784h3.384z"></path>
<path d="M87.753 11.126c1.539 0 2.899 0.327 4.080 0.98s2.097 1.602 2.751 2.846c0.675 1.223 1.012 2.688 1.012 4.396s-0.338 3.183-1.012 4.427c-0.654 1.223-1.571 2.161-2.751 2.814s-2.541 0.98-4.080 0.98-2.899-0.327-4.079-0.98c-1.181-0.653-2.108-1.592-2.783-2.814-0.675-1.244-1.012-2.72-1.012-4.427s0.337-3.173 1.012-4.396c0.675-1.244 1.602-2.193 2.783-2.846s2.54-0.98 4.079-0.98zM87.753 13.782c-0.949 0-1.76 0.221-2.435 0.664-0.653 0.422-1.159 1.044-1.518 1.866s-0.538 1.834-0.538 3.036c0 1.181 0.179 2.193 0.538 3.036 0.358 0.822 0.864 1.455 1.518 1.897 0.675 0.422 1.486 0.633 2.435 0.633s1.75-0.211 2.403-0.633c0.654-0.443 1.159-1.075 1.518-1.897 0.358-0.843 0.538-1.855 0.538-3.036 0-1.202-0.179-2.214-0.538-3.036s-0.864-1.444-1.518-1.866c-0.653-0.443-1.455-0.664-2.403-0.664z"></path>
<path d="M69.108 11.126c1.539 0 2.899 0.327 4.079 0.98s2.098 1.602 2.751 2.846c0.675 1.223 1.012 2.688 1.012 4.396s-0.337 3.183-1.012 4.427c-0.654 1.223-1.571 2.161-2.751 2.814s-2.54 0.98-4.079 0.98-2.899-0.327-4.080-0.98c-1.181-0.653-2.108-1.592-2.783-2.814-0.675-1.244-1.012-2.72-1.012-4.427s0.337-3.173 1.012-4.396c0.675-1.244 1.602-2.193 2.783-2.846s2.541-0.98 4.080-0.98zM69.108 13.782c-0.949 0-1.76 0.221-2.435 0.664-0.654 0.422-1.16 1.044-1.518 1.866s-0.538 1.834-0.538 3.036c0 1.181 0.179 2.193 0.538 3.036 0.358 0.822 0.864 1.455 1.518 1.897 0.675 0.422 1.486 0.633 2.435 0.633s1.75-0.211 2.403-0.633c0.653-0.443 1.159-1.075 1.518-1.897 0.358-0.843 0.538-1.855 0.538-3.036 0-1.202-0.179-2.214-0.538-3.036s-0.864-1.444-1.518-1.866c-0.654-0.443-1.455-0.664-2.403-0.664z"></path>
<path d="M62.288 6.382v2.909h-7.147v17.962h-3.384v-17.962h-7.147v-2.909h17.678z"></path>
</symbol>
</defs>
</svg>
