<svg width="43" height="33" viewBox="0 0 43 33" fill="none" xmlns="http://www.w3.org/2000/svg">
<path d="M9.6945 20.113H24.4335C24.9315 20.113 25.3055 19.9577 25.5555 19.647C25.8055 19.3367 25.9305 18.995 25.9305 18.622C25.9305 18.2493 25.8055 17.9047 25.5555 17.588C25.3055 17.2713 24.9315 17.113 24.4335 17.113H9.6945C9.27117 17.113 8.91567 17.2577 8.628 17.547C8.34067 17.836 8.197 18.1943 8.197 18.622C8.197 19.0493 8.34067 19.4047 8.628 19.688C8.91567 19.9713 9.27117 20.113 9.6945 20.113ZM9.697 11.297H18.247C18.672 11.297 19.0282 11.1523 19.3155 10.863C19.6032 10.574 19.747 10.2157 19.747 9.788C19.747 9.36066 19.6032 9.00533 19.3155 8.722C19.0282 8.43867 18.672 8.297 18.247 8.297H9.697C9.272 8.297 8.91567 8.4415 8.628 8.7305C8.34067 9.01983 8.197 9.37817 8.197 9.8055C8.197 10.2332 8.34067 10.5887 8.628 10.872C8.91567 11.1553 9.272 11.297 9.697 11.297ZM3.4065 28.598C2.4615 28.598 1.6575 28.2665 0.9945 27.6035C0.3315 26.9405 0 26.1365 0 25.1915V3.4185C0 2.47017 0.3315 1.66333 0.9945 0.997998C1.6575 0.332665 2.4615 0 3.4065 0H37.1915C38.1398 0 38.9467 0.332665 39.612 0.997998C40.2773 1.66333 40.61 2.47017 40.61 3.4185V8.1775C40.61 8.65817 40.4432 9.06217 40.1095 9.3895C39.7755 9.71683 39.3673 9.8805 38.885 9.8805C38.4023 9.8805 37.9993 9.71683 37.676 9.3895C37.353 9.06217 37.1915 8.65817 37.1915 8.1775V3.4185H3.4065V25.1415H18.299C18.7797 25.1415 19.1837 25.306 19.511 25.635C19.8387 25.964 20.0025 26.3702 20.0025 26.8535C20.0025 27.3368 19.8387 27.7483 19.511 28.088C19.1837 28.428 18.7797 28.598 18.299 28.598H3.4065ZM42.324 14.275C42.5383 14.4897 42.6455 14.7518 42.6455 15.0615C42.6455 15.3712 42.5363 15.6313 42.318 15.842L40.51 17.662L37.723 14.875L39.637 12.949C39.836 12.7423 40.0628 12.639 40.3175 12.639C40.5722 12.639 40.799 12.7423 40.998 12.949L42.324 14.275ZM39.174 18.998L26.024 32.148C25.839 32.3307 25.6482 32.4593 25.4515 32.534C25.2545 32.6087 25.0512 32.646 24.8415 32.646H23.573C23.349 32.646 23.152 32.561 22.982 32.391C22.8123 32.221 22.7275 32.024 22.7275 31.8V30.5435C22.7275 30.3338 22.7667 30.1297 22.845 29.931C22.9237 29.7323 23.0543 29.5423 23.237 29.361L36.387 16.211L39.174 18.998Z" fill="black"/>
</svg>
