<svg width="41" height="35" viewBox="0 0 41 35" fill="none" xmlns="http://www.w3.org/2000/svg">
<path d="M11.449 5.6935V3.1435C11.449 2.27917 11.754 1.53917 12.364 0.923502C12.974 0.307835 13.7128 0 14.5805 0H25.9175C26.7852 0 27.524 0.307835 28.134 0.923502C28.744 1.53917 29.049 2.27917 29.049 3.1435V5.6935H32.249C32.897 5.6935 33.4988 5.85317 34.0545 6.1725C34.6102 6.4915 35.0167 6.95833 35.274 7.573L40.15 19.137C40.3407 19.5263 40.465 19.9253 40.523 20.334C40.581 20.7427 40.61 21.1513 40.61 21.56V31.347C40.61 32.292 40.2773 33.096 39.612 33.759C38.9467 34.422 38.1398 34.7535 37.1915 34.7535H3.4065C2.4615 34.7535 1.6575 34.422 0.9945 33.759C0.3315 33.096 0 32.292 0 31.347V21.56C0 21.1513 0.0290003 20.7427 0.0870003 20.334C0.145 19.9253 0.265334 19.5263 0.448 19.137L5.224 7.573C5.48133 6.95833 5.88783 6.4915 6.4435 6.1725C6.99917 5.85317 7.601 5.6935 8.249 5.6935H11.449ZM14.5805 5.6935H25.9175V3.1435H14.5805V5.6935ZM10.6065 19.0045V18.1545C10.6065 17.7295 10.7512 17.3732 11.0405 17.0855C11.3295 16.7982 11.6878 16.6545 12.1155 16.6545C12.5428 16.6545 12.8992 16.7982 13.1845 17.0855C13.4698 17.3732 13.6125 17.7295 13.6125 18.1545V19.0045H26.9855V18.1545C26.9855 17.7295 27.1312 17.3732 27.4225 17.0855C27.7135 16.7982 28.0727 16.6545 28.5 16.6545C28.9277 16.6545 29.2832 16.7982 29.5665 17.0855C29.8498 17.3732 29.9915 17.7295 29.9915 18.1545V19.0045H36.3415L32.216 9.112H8.3825L4.2565 19.0045H10.6065ZM10.6065 22.0045H3.4065V31.347H37.1915V22.0045H29.9915V22.8545C29.9915 23.2795 29.8468 23.6357 29.5575 23.923C29.2685 24.2107 28.9102 24.3545 28.4825 24.3545C28.0552 24.3545 27.6988 24.2107 27.4135 23.923C27.1282 23.6357 26.9855 23.2795 26.9855 22.8545V22.0045H13.6125V22.8545C13.6125 23.2795 13.4668 23.6357 13.1755 23.923C12.8845 24.2107 12.5253 24.3545 12.098 24.3545C11.6703 24.3545 11.3148 24.2107 11.0315 23.923C10.7482 23.6357 10.6065 23.2795 10.6065 22.8545V22.0045Z" fill="black"/>
</svg>
